<svg width="266" height="266" viewBox="0 0 266 266" fill="none" xmlns="http://www.w3.org/2000/svg">
<path d="M73.1141 93.6747L139.158 159.718C150.377 170.938 155.893 182.582 155.704 194.65C155.61 206.623 150.236 217.937 139.582 228.591C128.268 239.904 116.059 245.797 102.954 246.268C89.9433 246.645 77.4982 240.894 65.6188 229.015L93.0545 201.579C100.974 209.31 107.762 210.347 113.419 204.69C118.51 199.599 117.85 193.848 111.439 187.437L45.3955 121.393L73.1141 93.6747ZM227.968 140.205C216.372 151.801 204.115 158.589 191.199 160.569C178.188 162.455 166.261 158.542 155.419 148.831L184.976 119.274C188.747 122.48 192.33 123.988 195.724 123.8C199.118 123.611 202.23 122.103 205.058 119.274C207.604 116.729 209.065 114.042 209.442 111.213C209.819 108.196 208.876 105.556 206.614 103.294C203.691 100.371 200.061 99.4752 195.724 100.607C191.387 101.738 185.165 104.378 177.057 108.526C168.383 112.863 161.029 116.069 154.995 118.143C148.961 120.028 142.503 120.547 135.62 119.698C128.738 118.661 122.138 114.984 115.821 108.668C109.41 102.256 105.545 95.1854 104.225 87.4544C102.81 79.629 103.753 71.7095 107.053 63.6956C110.353 55.6817 115.585 48.0921 122.751 40.9267C134.347 29.3302 146.321 22.8248 158.672 21.4106C171.023 19.8078 182.336 23.6733 192.613 33.0071L162.49 63.1299C159.379 60.2072 156.173 58.8872 152.874 59.1701C149.668 59.3586 146.698 60.82 143.964 63.5541C141.89 65.6283 140.806 67.9382 140.711 70.4838C140.617 73.0294 141.701 75.4335 143.964 77.6963C145.85 79.5819 148.207 80.5247 151.035 80.5247C153.864 80.3362 156.88 79.6762 160.086 78.5448C163.197 77.3192 167.629 75.3393 173.38 72.6051C181.865 68.4568 189.219 65.4398 195.441 63.5542C201.664 61.48 208.169 60.9143 214.958 61.8571C221.746 62.6113 228.063 65.9112 233.908 71.7566C239.848 77.6963 243.666 84.5317 245.363 92.2627C247.154 99.8994 246.589 107.913 243.666 116.304C240.838 124.601 235.605 132.568 227.968 140.205Z" fill="black"/>
</svg>
