<svg width="491" height="436" viewBox="0 0 491 436" fill="none" xmlns="http://www.w3.org/2000/svg">
<g clip-path="url(#clip0_2107_40)">
<path d="M402.914 141.172C397.83 139.424 392.562 137.77 387.139 136.206C388.03 132.571 388.848 128.984 389.576 125.457C401.517 67.5511 393.709 20.9017 367.048 5.54273C341.484 -9.18449 299.675 6.171 257.45 42.8806C253.39 46.4105 249.318 50.1479 245.248 54.0647C242.536 51.4733 239.829 48.9689 237.128 46.5735C192.875 7.32122 148.519 -9.22021 121.884 6.1832C96.3439 20.9531 88.7805 64.808 99.5295 119.686C100.567 124.986 101.781 130.399 103.153 135.903C96.8751 137.683 90.8146 139.581 85.0158 141.6C33.134 159.67 0 187.99 0 217.365C0 247.704 35.5694 278.134 89.6083 296.586C93.8728 298.042 98.2978 299.419 102.858 300.726C101.378 306.678 100.09 312.511 99.0096 318.201C88.7604 372.126 96.7644 414.945 122.236 429.621C148.547 444.778 192.703 429.199 235.699 391.653C239.098 388.685 242.508 385.537 245.925 382.238C250.354 386.499 254.775 390.53 259.173 394.312C300.821 430.115 341.954 444.572 367.403 429.854C393.687 414.654 402.229 368.656 391.139 312.693C390.292 308.418 389.306 304.052 388.199 299.608C391.3 298.692 394.344 297.747 397.313 296.764C453.491 278.169 490.043 248.109 490.043 217.365C490.043 187.884 455.84 159.373 402.914 141.172ZM390.729 276.913C388.049 277.799 385.3 278.655 382.498 279.486C376.296 259.872 367.926 239.015 357.683 217.467C367.458 196.432 375.504 175.842 381.533 156.355C386.545 157.804 391.411 159.333 396.099 160.946C441.447 176.541 469.108 199.599 469.108 217.365C469.108 236.29 439.235 260.857 390.729 276.913ZM370.602 316.754C375.506 341.5 376.206 363.874 372.958 381.364C370.039 397.081 364.17 407.559 356.913 411.756C341.469 420.685 308.443 409.078 272.826 378.459C268.743 374.949 264.63 371.201 260.504 367.235C274.312 352.149 288.112 334.61 301.581 315.132C325.271 313.032 347.653 309.599 367.95 304.912C368.949 308.94 369.837 312.891 370.602 316.754ZM167.067 410.212C151.978 415.536 139.961 415.688 132.697 411.504C117.239 402.597 110.813 368.218 119.579 322.101C120.583 316.819 121.778 311.394 123.155 305.849C143.229 310.283 165.447 313.474 189.194 315.397C202.753 334.457 216.952 351.976 231.261 367.316C228.134 370.331 225.02 373.201 221.924 375.906C202.911 392.508 183.858 404.288 167.067 410.212ZM96.3788 276.797C72.4839 268.638 52.7505 258.034 39.2242 246.463C27.07 236.065 20.9336 225.742 20.9336 217.365C20.9336 199.539 47.537 176.802 91.9067 161.348C97.2903 159.473 102.926 157.706 108.775 156.046C114.907 175.973 122.951 196.807 132.658 217.874C122.825 239.254 114.667 260.42 108.475 280.58C104.305 279.383 100.266 278.123 96.3788 276.797ZM120.074 115.67C110.865 68.6517 116.981 33.183 132.372 24.2827C148.766 14.8012 185.019 28.3198 223.228 62.2122C225.67 64.3784 228.122 66.6457 230.581 68.9915C216.343 84.2642 202.274 101.652 188.835 120.599C165.788 122.733 143.727 126.161 123.443 130.752C122.167 125.627 121.038 120.592 120.074 115.67ZM331.456 167.812C326.607 159.445 321.629 151.276 316.555 143.33C332.19 145.304 347.17 147.926 361.238 151.133C357.015 164.655 351.751 178.793 345.554 193.287C341.109 184.856 336.407 176.356 331.456 167.812ZM245.255 83.9374C254.911 94.3879 264.581 106.056 274.092 118.715C264.508 118.263 254.805 118.028 245.021 118.028C235.331 118.028 225.699 118.258 216.174 118.702C225.695 106.16 235.448 94.5082 245.255 83.9374ZM158.502 167.957C153.658 176.347 149.044 184.802 144.669 193.271C138.572 178.828 133.357 164.626 129.097 150.912C143.078 147.786 157.988 145.23 173.524 143.293C168.378 151.313 163.359 159.544 158.502 167.957ZM173.972 292.929C157.92 291.14 142.786 288.716 128.808 285.676C133.136 271.718 138.467 257.212 144.692 242.457C149.079 250.921 153.711 259.379 158.585 267.788C163.549 276.354 168.693 284.746 173.972 292.929ZM245.834 352.267C235.912 341.573 226.016 329.743 216.35 317.018C225.733 317.386 235.299 317.574 245.021 317.574C255.01 317.574 264.884 317.349 274.603 316.917C265.06 329.871 255.425 341.719 245.834 352.267ZM345.754 241.705C352.304 256.619 357.825 271.049 362.209 284.77C348.001 288.008 332.66 290.616 316.497 292.554C321.584 284.501 326.606 276.191 331.54 267.644C336.532 258.996 341.272 250.336 345.754 241.705ZM313.406 257.196C305.746 270.464 297.882 283.131 289.898 295.087C275.356 296.126 260.333 296.661 245.021 296.661C229.772 296.661 214.938 296.188 200.653 295.261C192.348 283.148 184.312 270.444 176.701 257.31C169.11 244.212 162.124 231.002 155.793 217.867C162.123 204.701 169.091 191.477 176.639 178.402C184.207 165.292 192.17 152.653 200.399 140.616C214.973 139.515 229.917 138.941 245.021 138.941C260.192 138.941 275.157 139.519 289.726 140.63C297.829 152.579 305.74 165.18 313.338 178.291C321.021 191.55 328.08 204.687 334.463 217.57C328.099 230.675 321.056 243.943 313.406 257.196ZM356.592 23.6605C373.002 33.1141 379.383 71.2405 369.073 121.236C368.415 124.426 367.675 127.676 366.871 130.969C346.54 126.282 324.463 122.795 301.348 120.629C287.883 101.473 273.929 84.0586 259.923 68.9819C263.689 65.3631 267.449 61.9124 271.194 58.656C307.372 27.2035 341.186 14.7855 356.592 23.6605ZM245.021 173.651C269.189 173.651 288.781 193.222 288.781 217.365C288.781 241.508 269.189 261.08 245.021 261.08C220.854 261.08 201.262 241.508 201.262 217.365C201.262 193.222 220.854 173.651 245.021 173.651Z" fill="#8a4802"/>
</g>
<defs>
<clipPath id="clip0_2107_40">
<rect width="491" height="436" fill="white"/>
</clipPath>
</defs>
</svg>
